<svg width="17" height="16" viewBox="0 0 17 16" fill="none" xmlns="http://www.w3.org/2000/svg">
<rect width="16.3333" height="15.5" rx="4" fill="url(#paint0_radial_4_7)"/>
<path d="M8.16667 5.66667V11.5M8.16667 5.66667C8.16667 5.22464 7.99107 4.80072 7.67851 4.48816C7.36595 4.17559 6.94203 4 6.5 4H4.41667C4.30616 4 4.20018 4.0439 4.12204 4.12204C4.0439 4.20018 4 4.30616 4 4.41667V9.83333C4 9.94384 4.0439 10.0498 4.12204 10.128C4.20018 10.2061 4.30616 10.25 4.41667 10.25H6.91667C7.24819 10.25 7.56613 10.3817 7.80055 10.6161C8.03497 10.8505 8.16667 11.1685 8.16667 11.5M8.16667 5.66667C8.16667 5.22464 8.34226 4.80072 8.65482 4.48816C8.96738 4.17559 9.39131 4 9.83333 4H11.9167C12.0272 4 12.1332 4.0439 12.2113 4.12204C12.2894 4.20018 12.3333 4.30616 12.3333 4.41667V9.83333C12.3333 9.94384 12.2894 10.0498 12.2113 10.128C12.1332 10.2061 12.0272 10.25 11.9167 10.25H9.41667C9.08515 10.25 8.7672 10.3817 8.53278 10.6161C8.29836 10.8505 8.16667 11.1685 8.16667 11.5" stroke="white" stroke-linecap="round" stroke-linejoin="round"/>
<defs>
<radialGradient id="paint0_radial_4_7" cx="0" cy="0" r="1" gradientUnits="userSpaceOnUse" gradientTransform="translate(8.16667 7.75) rotate(90) scale(7.75 8.16667)">
<stop stop-color="#3B82F6"/>
<stop offset="0.9" stop-color="#1E40AF"/>
</radialGradient>
</defs>
</svg>
